<?xml version="1.0" encoding="UTF-8"?>
<svg id="Layer_1" xmlns="http://www.w3.org/2000/svg" version="1.1" viewBox="0 0 256 256">
  <!-- Generator: Adobe Illustrator 29.4.0, SVG Export Plug-In . SVG Version: 2.1.0 Build 152)  -->
  <path d="M34.1,178.8c-.3,0-.7-.1-1-.1h-1.4,2.4ZM35.6,178.8h-1.5,1.5ZM13.7,168.7c3.6,5.6,12.5,9.3,19.3,10h104.2c.3.1.7.1,1,.1s.7,0,1-.1h85.3c11.9,0,21.5-9.7,21.5-21.7v-65.1c0-12-9.6-21.7-21.5-21.7H59.2c-8.9,0-16.5,4.8-19.8,12.7l-27.6,64.4c-3,7-2.2,15,1.9,21.4h0ZM229.4,107.7v24c0,2.8-4,6.9-6.7,6.9h-37.1c-2.7,0-3.4-4.1-3.4-6.9v-24c0-2.8.7-6.9,3.4-6.9h40.5c2.7,0,3.4,4.1,3.4,6.9h-.1ZM141.6,171.8v-71h19.4c1.9,0,4.7,2.8,4.7,4.7v66.4h-24c0-.1,0,0,0,0ZM111.5,105.6c0-1.9,2.8-4.7,4.7-4.7h18.6v70.9h-23.3v-66.2ZM35.9,130.8l9.4-24.3c0-2.3.6-5.6,3-5.6h41.4c2.4,0,2.9,2.7,2.9,4.9v24.9c0,2.2-.5,5.6-2.9,5.6h-50.8c-2.4,0-2.9-3.3-3-5.5Z" fill="#7f7f7f"/>
</svg>